<svg width="60" height="60" viewBox="0 0 60 60" fill="none" xmlns="http://www.w3.org/2000/svg">
<g id="Dumbbell">
<g id="Group">
<path id="Vector" d="M33.75 52.715C33.75 51.7775 33.3775 50.8775 32.715 50.215L9.785 27.285C9.1225 26.6225 8.2225 26.25 7.285 26.25C5.3325 26.25 3.75 27.8325 3.75 29.785C3.75 30.7225 4.1225 31.6225 4.785 32.285L27.7137 55.2138C28.3762 55.8763 29.2762 56.2488 30.2137 56.2488C32.1675 56.25 33.75 54.6675 33.75 52.715Z" stroke="black" stroke-width="1.5" stroke-miterlimit="10"/>
<path id="Vector_2" d="M9.785 37.285C9.1225 36.6225 8.2225 36.25 7.285 36.25C5.3325 36.25 3.75 37.8325 3.75 39.785C3.75 40.7225 4.1225 41.6225 4.785 42.285L17.7137 55.2138C18.3762 55.8763 19.2762 56.2488 20.2137 56.2488C22.1675 56.25 23.75 54.6675 23.75 52.715C23.75 51.7775 23.3775 50.8775 22.715 50.215" stroke="black" stroke-width="1.5" stroke-miterlimit="10"/>
<path id="Vector_3" d="M8.75 46.25L5 50L10 55L13.75 51.25" stroke="black" stroke-width="1.5" stroke-miterlimit="10"/>
<path id="Vector_4" d="M26.25 7.285C26.25 8.2225 26.6225 9.1225 27.285 9.785L50.2138 32.7137C50.8763 33.3762 51.7763 33.7488 52.7138 33.7488C54.6675 33.75 56.25 32.1675 56.25 30.215C56.25 29.2775 55.8775 28.3775 55.215 27.715L32.285 4.785C31.6225 4.1225 30.7225 3.75 29.785 3.75C27.8325 3.75 26.25 5.3325 26.25 7.285V7.285Z" stroke="black" stroke-width="1.5" stroke-miterlimit="10"/>
<path id="Vector_5" d="M50.215 22.715C50.8775 23.3775 51.7775 23.75 52.715 23.75C54.6675 23.75 56.25 22.1675 56.25 20.215C56.25 19.2775 55.8775 18.3775 55.215 17.715L42.285 4.785C41.6225 4.1225 40.7225 3.75 39.785 3.75C37.8325 3.75 36.25 5.3325 36.25 7.285C36.25 8.2225 36.6225 9.1225 37.285 9.785" stroke="black" stroke-width="1.5" stroke-miterlimit="10"/>
<path id="Vector_6" d="M51.25 13.75L55 10L50 5L46.25 8.75" stroke="black" stroke-width="1.5" stroke-miterlimit="10"/>
<path id="Vector_7" d="M18.75 36.25L36.25 18.75" stroke="black" stroke-width="1.5" stroke-miterlimit="10"/>
<path id="Vector_8" d="M23.75 41.25L41.25 23.75" stroke="black" stroke-width="1.5" stroke-miterlimit="10"/>
</g>
</g>
</svg>
