<svg width="60" height="60" viewBox="0 0 60 60" fill="none" xmlns="http://www.w3.org/2000/svg">
<g id="Lemonade" clip-path="url(#clip0_203_6463)">
<g id="Group">
<path id="Vector" d="M22.9844 24.9999L18.6094 5.96863C18.5458 5.69311 18.3906 5.4473 18.1692 5.27135C17.9479 5.0954 17.6734 4.9997 17.3906 4.99988H10" stroke="black" stroke-width="2.5125" stroke-miterlimit="10"/>
<path id="Vector_2" d="M27.0469 24.9999L33.4844 3.39052C33.5619 3.13211 33.721 2.90573 33.9379 2.7452C34.1547 2.58467 34.4177 2.49862 34.6875 2.49989H43.75" stroke="black" stroke-width="2.5125" stroke-miterlimit="10"/>
<path id="Vector_3" d="M26.2583 34.9952L31.2633 29.9902L36.2628 34.9897L31.2578 39.9947L26.2583 34.9952Z" stroke="black" stroke-width="2.5125" stroke-miterlimit="10"/>
<path id="Vector_4" d="M22.5 46.2499H30V53.7499H22.5V46.2499Z" stroke="black" stroke-width="2.5125" stroke-miterlimit="10"/>
<path id="Vector_5" d="M19.0156 58.7499C18.0879 58.7511 17.1926 58.4083 16.5029 57.7878C15.8131 57.1673 15.3779 56.3132 15.2813 55.3905L11.125 16.2499H46.375L42.2187 55.3905C42.1221 56.3132 41.6869 57.1673 40.9971 57.7878C40.3074 58.4083 39.4121 58.7511 38.4844 58.7499H19.0156Z" stroke="black" stroke-width="2.5125" stroke-miterlimit="10"/>
<path id="Vector_6" d="M12.0466 24.9999H45.4529" stroke="black" stroke-width="2.5125" stroke-miterlimit="10"/>
<path id="Vector_7" d="M45.5781 23.7186L46.25 23.7499C47.7334 23.7499 49.1834 23.31 50.4168 22.4859C51.6501 21.6618 52.6114 20.4905 53.1791 19.12C53.7468 17.7496 53.8953 16.2416 53.6059 14.7867C53.3165 13.3318 52.6022 11.9955 51.5533 10.9466C50.5044 9.89769 49.168 9.18338 47.7132 8.89399C46.2583 8.6046 44.7503 8.75313 43.3799 9.32078C42.0094 9.88844 40.8381 10.8497 40.014 12.0831C39.1899 13.3165 38.75 14.7665 38.75 16.2499" stroke="black" stroke-width="2.5125" stroke-miterlimit="10"/>
</g>
</g>
<defs>
<clipPath id="clip0_203_6463">
<rect width="60" height="60" fill="white"/>
</clipPath>
</defs>
</svg>
