<svg width="60" height="60" viewBox="0 0 60 60" fill="none" xmlns="http://www.w3.org/2000/svg">
<g id="Combo Chart" clip-path="url(#clip0_202_187)">
<path id="Vector" d="M22.8285 26.2817L37.1722 13.7192" stroke="black" stroke-width="1.5" stroke-miterlimit="10"/>
<path id="Vector_2" d="M7.76587 17.5322L17.2346 26.2197" stroke="black" stroke-width="1.5" stroke-miterlimit="10"/>
<path id="Vector_3" d="M40.0004 15.0007C42.0714 15.0007 43.7504 13.3218 43.7504 11.2507C43.7504 9.17966 42.0714 7.50073 40.0004 7.50073C37.9293 7.50073 36.2504 9.17966 36.2504 11.2507C36.2504 13.3218 37.9293 15.0007 40.0004 15.0007Z" stroke="black" stroke-width="1.5" stroke-miterlimit="10"/>
<path id="Vector_4" d="M5.00055 18.7505C7.07162 18.7505 8.75055 17.0716 8.75055 15.0005C8.75055 12.9294 7.07162 11.2505 5.00055 11.2505C2.92948 11.2505 1.25055 12.9294 1.25055 15.0005C1.25055 17.0716 2.92948 18.7505 5.00055 18.7505Z" stroke="black" stroke-width="1.5" stroke-miterlimit="10"/>
<path id="Vector_5" d="M20.0004 32.5005C22.0715 32.5005 23.7504 30.8216 23.7504 28.7505C23.7504 26.6794 22.0715 25.0005 20.0004 25.0005C17.9293 25.0005 16.2504 26.6794 16.2504 28.7505C16.2504 30.8216 17.9293 32.5005 20.0004 32.5005Z" stroke="black" stroke-width="1.5" stroke-miterlimit="10"/>
<path id="Vector_6" d="M43.0003 13.501L52.0003 20.251" stroke="black" stroke-width="1.5" stroke-miterlimit="10"/>
<path id="Vector_7" d="M55.0002 26.251C57.0713 26.251 58.7502 24.572 58.7502 22.501C58.7502 20.4299 57.0713 18.751 55.0002 18.751C52.9292 18.751 51.2502 20.4299 51.2502 22.501C51.2502 24.572 52.9292 26.251 55.0002 26.251Z" stroke="black" stroke-width="1.5" stroke-miterlimit="10"/>
<path id="Vector_8" d="M55.0003 32.5005V52.5005H5.00031V25.0005" stroke="black" stroke-width="1.5" stroke-miterlimit="10"/>
<path id="Vector_9" d="M20.0002 52.5005V38.7505" stroke="black" stroke-width="1.5" stroke-miterlimit="10"/>
<path id="Vector_10" d="M40.0005 52.5007V21.2507" stroke="black" stroke-width="1.5" stroke-miterlimit="10"/>
</g>
<defs>
<clipPath id="clip0_202_187">
<rect width="60" height="60" fill="white"/>
</clipPath>
</defs>
</svg>
