<svg width="60" height="61" viewBox="0 0 60 61" fill="none" xmlns="http://www.w3.org/2000/svg">
<g id="Business progress">
<g id="Group">
<path id="Vector" d="M44.1155 44.3841C44.604 44.8726 45.3961 44.8726 45.8846 44.3841L53.8454 36.4232C54.3339 35.9347 54.3339 35.1427 53.8454 34.6542C53.3569 34.1656 52.5649 34.1656 52.0764 34.6542L45.0001 41.7304L37.9238 34.6542C37.4353 34.1656 36.6432 34.1656 36.1547 34.6542C35.6662 35.1427 35.6662 35.9347 36.1547 36.4232L44.1155 44.3841ZM43.7491 7.24951V43.4995H46.251V7.24951H43.7491Z" fill="black"/>
<path id="Vector_2" d="M18.7501 14.7498C22.2019 14.7498 25.0001 11.9515 25.0001 8.49976C25.0001 5.04798 22.2019 2.24976 18.7501 2.24976C15.2983 2.24976 12.5001 5.04798 12.5001 8.49976C12.5001 11.9515 15.2983 14.7498 18.7501 14.7498Z" stroke="black" stroke-width="1.5" stroke-miterlimit="10"/>
<path id="Vector_3" d="M18.7501 59.7498V42.2498" stroke="black" stroke-width="1.5" stroke-miterlimit="10"/>
<path id="Vector_4" d="M12.5 39.7502H11.25C10.2554 39.7502 9.30161 39.3552 8.59835 38.6519C7.89509 37.9486 7.5 36.9948 7.5 36.0002V26.0002C7.5 24.3426 8.15848 22.7529 9.33058 21.5808C10.5027 20.4087 12.0924 19.7502 13.75 19.7502H23.75C24.5708 19.7502 25.3835 19.9119 26.1418 20.226C26.9001 20.5401 27.5891 21.0005 28.1694 21.5808C28.7498 22.1612 29.2102 22.8502 29.5242 23.6085C29.8383 24.3668 30 25.1795 30 26.0002V36.0002C30 36.9948 29.6049 37.9486 28.9017 38.6519C28.1984 39.3552 27.2446 39.7502 26.25 39.7502H25" stroke="black" stroke-width="1.5" stroke-miterlimit="10"/>
<path id="Vector_5" d="M12.5001 27.2498V59.7498H25.0001V27.2498" stroke="black" stroke-width="1.5" stroke-miterlimit="10"/>
</g>
</g>
</svg>
